<?xml version="1.0" encoding="UTF-8"?>
<svg width="48" height="48" viewBox="0 0 48 48" fill="none" xmlns="http://www.w3.org/2000/svg">
  <!-- Background Circle -->
  <circle cx="24" cy="24" r="22" fill="#1a73e8"/>

  <!-- Shopping Bag -->
  <path d="M15 18V15C15 11.7 17.7 9 21 9H27C30.3 9 33 11.7 33 15V18H36C37.65 18 39 19.35 39 21V33C39 34.65 37.65 36 36 36H12C10.35 36 9 34.65 9 33V21C9 19.35 10.35 18 12 18H15ZM18 18H30V15C30 13.35 28.65 12 27 12H21C19.35 12 18 13.35 18 15V18Z" fill="white"/>

  <!-- Percentage Sign -->
  <path d="M19.5 24L28.5 31.5M19.5 31.5L28.5 24M21 24C21 24.8284 20.3284 25.5 19.5 25.5C18.6716 25.5 18 24.8284 18 24C18 23.1716 18.6716 22.5 19.5 22.5C20.3284 22.5 21 23.1716 21 24ZM30 31.5C30 32.3284 29.3284 33 28.5 33C27.6716 33 27 32.3284 27 31.5C27 30.6716 27.6716 30 28.5 30C29.3284 30 30 30.6716 30 31.5Z" stroke="white" stroke-width="1.5" stroke-linecap="round"/>
</svg>
