<?xml version="1.0" encoding="UTF-8"?>
<svg width="16" height="16" viewBox="0 0 16 16" fill="none" xmlns="http://www.w3.org/2000/svg">
  <!-- Background Circle -->
  <circle cx="8" cy="8" r="7.5" fill="#1a73e8"/>

  <!-- Shopping Bag -->
  <path d="M5 6V5C5 3.9 5.9 3 7 3H9C10.1 3 11 3.9 11 5V6H12C12.55 6 13 6.45 13 7V11C13 11.55 12.55 12 12 12H4C3.45 12 3 11.55 3 11V7C3 6.45 3.45 6 4 6H5ZM6 6H10V5C10 4.45 9.55 4 9 4H7C6.45 4 6 4.45 6 5V6Z" fill="white"/>

  <!-- Percentage Sign -->
  <path d="M6.5 8L9.5 10.5M6.5 10.5L9.5 8M7 8C7 8.27614 6.77614 8.5 6.5 8.5C6.22386 8.5 6 8.27614 6 8C6 7.72386 6.22386 7.5 6.5 7.5C6.77614 7.5 7 7.72386 7 8ZM10 10.5C10 10.7761 9.77614 11 9.5 11C9.22386 11 9 10.7761 9 10.5C9 10.2239 9.22386 10 9.5 10C9.77614 10 10 10.2239 10 10.5Z" stroke="white" stroke-width="0.75" stroke-linecap="round"/>
</svg>
